# AST/ASF file generated using VICON BodyLanguage
# -----------------------------------------------
:version 1.10
:name VICON
:units
  mass 1.0
  length 0.45
  angle deg
:documentation
   .ast/.asf automatically generated from VICON data using
   VICON BodyBuilder and BodyLanguage model FoxedUp or BRILLIANT.MOD
:root
   order TX TY TZ RX RY RZ
   axis XYZ
   position 0 0 0  
   orientation 0 0 0 
:bonedata
  begin
     id 1 
     name lhipjoint
     direction 0.61886 -0.69539 0.365302 
     length 2.20474 
     axis 0 0 0  XYZ
  end
  begin
     id 2 
     name lfemur
     direction 0.34202 -0.939693 0  
     length 6.65149  
     axis 0 0 20  XYZ
    dof rx ry rz
    limits (-160.0 20.0)
           (-70.0 70.0)
           (-60.0 70.0)
  end
  begin
     id 3 
     name ltibia
     direction 0.34202 -0.939693 0   
     length 6.35814   
     axis 0 0 20   XYZ
    dof rx
    limits (-10.0 170.0)
  end
  begin
     id 4 
     name lfoot
     direction 0.101224 -0.278109 0.955201   
     length 2.18766   
     axis -90 7.62852e-016 20   XYZ
    dof rx rz
    limits (-45.0 90.0)
           (-70.0 20.0)
  end
  begin
     id 5 
     name ltoes
     direction 1.53524e-011 -4.21877e-011 1   
     length 1.09206   
     axis -90 7.62852e-016 20   XYZ
    dof rx
    limits (-90.0 20.0)
  end
  begin
     id 6 
     name rhipjoint
     direction -0.600207 -0.708087 0.371972   
     length 2.1652  
     axis 0 0 0  XYZ 
  end
  begin
     id 7 
     name rfemur
     direction -0.34202 -0.939693 0   
     length 6.54691   
     axis 0 0 -20   XYZ
    dof rx ry rz
    limits (-160.0 20.0)
           (-70.0 70.0)
           (-70.0 60.0)
  end
  begin
     id 8 
     name rtibia
     direction -0.34202 -0.939693 0   
     length 6.37474   
     axis 0 0 -20   XYZ
    dof rx
    limits (-10.0 170.0)
 end
 begin
     id 9 
     name rfoot
     direction -0.111266 -0.3057 0.945604   
     length 2.00903  
     axis -90 -7.62852e-016 -20   XYZ
    dof rx rz
    limits (-45.0 90.0)
           (-20.0 70.0)
  end
  begin
     id 10 
     name rtoes
     direction -1.5362e-011 -4.21913e-011 1   
     length 1.00221   
     axis -90 -7.62852e-016 -20   XYZ
    dof rx
    limits (-90.0 20.0)
  end
  begin
     id 11 
     name lowerback
     direction -0.0224561 0.999731 -0.00577314   
     length 2.10409   
     axis 0 0 0   XYZ
    dof rx ry rz
    limits (-20.0 45.0)
           (-30.0 30.0)
           (-30.0 30.0)
  end
  begin
     id 12 
     name upperback
     direction 0.0213126 0.999185 -0.0342817   
     length 2.09783   
     axis 0 0 0   XYZ
    dof rx ry rz
    limits (-20.0 45.0)
           (-30.0 30.0)
           (-30.0 30.0)
  end
  begin
     id 13 
     name thorax
     direction 0.0312356 0.999036 -0.0308451   
     length 2.09788   
     axis 0 0 0   XYZ
    dof rx ry rz
    limits (-20.0 45.0)
           (-30.0 30.0)
           (-30.0 30.0)
  end
  begin
     id 14 
     name lowerneck
     direction -0.0114419 0.996481 0.0830329   
     length 1.38575   
     axis 0 0 0   XYZ
    dof rx ry rz
    limits (-20.0 45.0)
           (-30.0 30.0)
           (-30.0 30.0)
  end
  begin
     id 15 
     name upperneck
     direction -0.0075675 0.996187 -0.0869092   
     length 1.39401   
     axis 0 0 0   XYZ
    dof rx ry rz
    limits (-20.0 45.0)
           (-30.0 30.0)
           (-30.0 30.0)
  end
  begin
     id 16
     name head
     direction -0.00222073 0.999264 -0.0382974  
     length 1.3964  
     axis 0 0 0   XYZ
    dof rx ry rz
    limits (-20.0 45.0)
           (-30.0 30.0)
           (-30.0 30.0)
  end
  begin
     id 17 
     name lclavicle
     direction 0.965962 0.222138 0.132556  
     length 2.81514  
     axis 0 0 0   XYZ
    dof ry rz
    limits (-20.0 10.0)
           (0.0 20.0)
  end
  begin
     id 18 
     name lhumerus
     direction 1 -4.48972e-011 7.03471e-018   
     length 4.47366   
     axis 180 -30 -90   XYZ
    dof rx ry rz
    limits (-60.0 90.0)
           (-90.0 90.0)
           (-90.0 90.0)
  end
  begin
     id 19
     name lradius
     direction 1 -4.48951e-011 -6.22192e-028   
     length 3.19948   
     axis 180 -30 -90   XYZ
    dof rx
    limits (-10.0 170.0)
  end
  begin
     id 20
     name lwrist
     direction 1 -4.48967e-011 -1.24264e-027   
     length 1.59974   
     axis 1.40095e-015 90 90   XYZ
    dof ry
    limits (-180.0 0.0)
 end
  begin
     id 21 
     name lhand
     direction 1 -4.4897e-011 -2.48528e-027   
     length 0.492667   
     axis 1.58582e-015 90 90   XYZ
    dof rx rz
    limits (-90.0 90.0)
           (-45.0 45.0)
  end
  begin
     id 22 
     name lfingers
     direction 1 -4.48996e-011 -4.97056e-027   
     length 0.397201   
     axis 3.17164e-015 90 90   XYZ
    dof rx
    limits (0.0 90.0)
  end
  begin
     id 23
     name lthumb
     direction 0.707107 -6.34981e-011 0.707107   
     length 0.570303   
     axis -90 45 2.85299e-015   XYZ
    dof rx rz
    limits (-45.0 45.0)
           (-45.0 45.0)
  end
  begin
     id 24 
     name rclavicle
     direction -0.961164 0.229034 0.153972   
     length 3.09348  
     axis 0 0 0   XYZ 
    dof ry rz
    limits (-10.0 20.0)
           (-20.0 0.0)
  end
  begin
     id 25 
     name rhumerus
     direction -1 -4.48971e-011 -9.06263e-028  
     length 4.3269   
     axis 180 30 90   XYZ
    dof rx ry rz
    limits (-90.0 60.0)
           (-90.0 90.0)
           (-90.0 90.0)
  end
  begin
     id 26 
     name rradius
     direction -1 -4.48953e-011 1.44659e-027   
     length 3.1896   
     axis 180 30 90   XYZ
    dof rx
    limits (-10.0 170.0)
  end
  begin
     id 27 
     name rwrist
     direction -1 -4.48988e-011 -1.24264e-027   
     length 1.5948   
     axis 1.40095e-015 -90 -90   XYZ
    dof ry
    limits (-180.0 0.0)
  end
  begin
     id 28
     name rhand
     direction -1 -4.49033e-011 -2.48528e-027   
     length 0.464496   
     axis 1.58582e-015 -90 -90   XYZ
    dof rx rz
    limits (-90.0 90.0)
           (-45.0 45.0)
  end
  begin
     id 29
     name rfingers
     direction -1 -4.48905e-011 -4.97056e-027   
     length 0.374489   
     axis 3.17164e-015 -90 -90   XYZ
    dof rx
    limits (0.0 90.0)
  end
  begin
     id 30
     name rthumb
     direction -0.707107 -6.34909e-011 0.707107   
     length 0.537693   
     axis -90 -45 -2.85299e-015   XYZ
    dof rx rz
    limits (-45.0 45.0)
           (-45.0 45.0)
  end
:hierarchy
  begin
    root lhipjoint rhipjoint lowerback
    lhipjoint lfemur
    lfemur ltibia
    ltibia lfoot
    lfoot ltoes
    rhipjoint rfemur
    rfemur rtibia
    rtibia rfoot
    rfoot rtoes
    lowerback upperback
    upperback thorax
    thorax lowerneck lclavicle rclavicle
    lowerneck upperneck
    upperneck head
    lclavicle lhumerus
    lhumerus lradius
    lradius lwrist
    lwrist lhand lthumb
    lhand lfingers
    rclavicle rhumerus
    rhumerus rradius
    rradius rwrist
    rwrist rhand rthumb
    rhand rfingers
  end

#!OML:ASF G:\acrobat\cartwheel_test 2\Patient 1\Session 2\acrobat4.ASF
:FULLY-SPECIFIED
:DEGREES
257
root 9.39312 21.4706 -10.2126 14.2807 -0.690558 -3.82064
lowerback 3.16841 -0.489623 -4.81269
upperback 3.12593 -0.730269 -1.20077
thorax 1.4862 -0.441655 1.47423
lowerneck -15.3124 -1.39441 -5.15607
upperneck 31.8816 -1.76564 3.86071
head 13.3584 -0.895103 2.13725
rclavicle 1.66979e-014 9.54166e-015
rhumerus -47.4844 -3.73704 -28.8837
rradius 27.2449
rwrist -0.27899
rhand -17.5093 -29.6893
rfingers 7.12502
rthumb 8.74384 -59.4882
lclavicle 1.66979e-014 9.54166e-015
lhumerus -45.1648 -29.7811 102.712
lradius 91.5464
lwrist 46.5705
lhand -28.09 -3.46172
lfingers 7.12502
lthumb -1.47283 26.5129
rfemur -33.5997 3.81364 26.6392
rtibia 50.5462
rfoot -24.1833 -12.2827
rtoes -31.6413
lfemur -38.1383 2.03411 -19.3048
ltibia 64.4353
lfoot -17.6124 -3.73979
ltoes -46.5471
258
root 9.40296 21.4836 -10.2131 14.4754 -0.317809 -3.52501
lowerback 3.09251 -0.575827 -5.14042
upperback 3.1593 -0.849259 -0.701639
thorax 1.58531 -0.515632 2.17125
lowerneck -15.2971 -1.50211 -5.29749
upperneck 31.8578 -1.72897 3.4116
head 13.3425 -0.953886 1.98985
rclavicle -3.97569e-016 -2.38542e-014
rhumerus -46.9885 -5.28739 -26.8102
rradius 26.1687
rwrist 2.17187
rhand -19.4203 -32.422
rfingers 7.12502
rthumb 6.8994 -62.2896
lclavicle -3.97569e-016 -2.38542e-014
lhumerus -45.029 -28.4644 102.125
lradius 91.3697
lwrist 46.3605
lhand -29.1011 -3.02295
lfingers 7.12502
lthumb -2.44935 26.9427
rfemur -36.2092 3.96186 25.7286
rtibia 49.8607
rfoot -22.7921 -11.9267
rtoes -32.7559
lfemur -35.5659 1.73479 -19.9936
ltibia 64.2339
lfoot -17.9608 -3.44148
ltoes -46.7902
259
root 9.41371 21.4636 -10.2045 14.799 -0.313262 -3.19164
lowerback 2.82468 -0.503076 -5.50162
upperback 3.07152 -0.747 -0.444947
thorax 1.64752 -0.474577 2.63398
lowerneck -15.0661 -1.59266 -5.16202
upperneck 31.8951 -1.83603 3.17584
head 13.311 -1.01608 1.85716
rclavicle -1.19271e-015 6.36111e-015
rhumerus -47.0122 -6.9961 -25.4107
rradius 25.3319
rwrist 4.32926
rhand -20.0935 -34.6647
rfingers 7.12502
rthumb 6.24954 -64.5525
lclavicle -1.19271e-015 6.36111e-015
lhumerus -44.9337 -27.3413 101.197
lradius 90.8731
lwrist 46.4441
lhand -29.6795 -2.88204
lfingers 7.12502
lthumb -3.0079 27.0765
rfemur -38.6497 3.77317 25.1874
rtibia 49.3895
rfoot -21.66 -11.796
rtoes -34.1371
lfemur -33.0135 1.86604 -21.112
ltibia 62.9863
lfoot -18.5052 -2.06648
ltoes -46.5053
260
root 9.42574 21.3912 -10.1895 15.1093 -0.479227 -2.89655
lowerback 2.50039 -0.296122 -5.64448
upperback 2.84992 -0.459878 -0.486186
thorax 1.57672 -0.327448 2.66702
lowerneck -14.4686 -1.71425 -4.64856
upperneck 32.0411 -2.16397 3.07398
head 13.2518 -1.11506 1.67965
rclavicle -7.95139e-015 2.22639e-014
rhumerus -47.8125 -8.43781 -24.7707
rradius 24.9222
rwrist 6.08344
rhand -19.4126 -35.5071
rfingers 7.12502
rthumb 6.90689 -65.3744
lclavicle -7.95139e-015 2.22639e-014
lhumerus -45.0921 -26.5426 99.9774
lradius 90.0982
lwrist 46.5221
lhand -29.5353 -3.06872
lfingers 7.12502
lthumb -2.86868 26.8917
rfemur -40.7445 3.1339 25.1574
rtibia 49.4084
rfoot -20.1089 -11.2204
rtoes -36.1256
lfemur -30.6278 2.39326 -22.5771
ltibia 61.1021
lfoot -18.9263 -0.210044
ltoes -45.5487
261
root 9.4348 21.2571 -10.1779 15.3521 -0.538494 -2.59686
lowerback 2.25139 -0.451552 -6.11163
upperback 2.94378 -0.654374 -0.174955
thorax 1.84355 -0.446341 3.24857
lowerneck -15.2158 -1.62133 -4.72803
upperneck 32.4906 -1.88949 2.80743
head 13.5938 -1.03923 1.63584
rclavicle -4.77083e-015 -7.95139e-015
rhumerus -46.9857 -9.16462 -25.2678
rradius 24.7366
rwrist 6.64179
rhand -18.2309 -35.5207
rfingers 7.12502
rthumb 8.04748 -65.3475
lclavicle -4.77083e-015 -7.95139e-015
lhumerus -44.1479 -24.5042 98.3876
lradius 88.9257
lwrist 46.5635
lhand -29.1173 -3.40745
lfingers 7.12502
lthumb -2.46495 26.5581
rfemur -42.5393 2.13156 25.5784
rtibia 50.1032
rfoot -18.6145 -9.54678
rtoes -38.686
lfemur -28.6684 3.22657 -24.2901
ltibia 59.1511
lfoot -19.5679 2.52002
ltoes -44.7196
262
root 9.43905 21.0649 -10.1746 15.6166 -0.325279 -2.24406
lowerback 2.07139 -0.367739 -6.36153
upperback 2.70503 -0.540218 -0.222198
thorax 1.68896 -0.383537 3.33932
lowerneck -14.7844 -1.75942 -4.0136
upperneck 32.6552 -2.24312 2.55339
head 13.5729 -1.14144 1.35712
rclavicle 8.34896e-015 -1.59028e-015
rhumerus -47.7073 -8.78604 -26.901
rradius 25.2377
rwrist 5.40116
rhand -17.6276 -35.1406
rfingers 7.12502
rthumb 8.62969 -64.9443
lclavicle 8.34896e-015 -1.59028e-015
lhumerus -43.9276 -23.5561 96.8131
lradius 87.3506
lwrist 46.7651
lhand -28.9515 -4.25685
lfingers 7.12502
lthumb -2.30488 25.7104
rfemur -44.1111 0.862292 26.3446
rtibia 51.4461
rfoot -18.2053 -6.92275
rtoes -40.0531
lfemur -27.4121 4.29206 -26.1326
ltibia 57.6547
lfoot -20.4972 5.62355
ltoes -42.6186
263
root 9.44039 20.8272 -10.1809 15.9236 0.172013 -1.96628
lowerback 2.01381 -0.232701 -6.33517
upperback 2.27435 -0.371175 -0.386507
thorax 1.25568 -0.274155 3.15565
lowerneck -13.9399 -1.98956 -3.1297
upperneck 32.6115 -2.80232 2.36927
head 13.3727 -1.30432 1.047
rclavicle -1.43125e-014 -1.90833e-014
rhumerus -49.1054 -8.13132 -29.027
rradius 26.2308
rwrist 3.85071
rhand -16.6867 -34.224
rfingers 7.12502
rthumb 9.53765 -63.9881
lclavicle -1.43125e-014 -1.90833e-014
lhumerus -43.9299 -23.1813 95.292
lradius 85.4279
lwrist 46.5874
lhand -30.4354 -4.72366
lfingers 7.12502
lthumb -3.73792 25.2233
rfemur -45.3856 -0.435419 27.4172
rtibia 53.2182
rfoot -16.8615 -7.10557
rtoes -37.7111
lfemur -26.9258 5.61232 -27.8716
ltibia 56.984
lfoot -24.2663 8.60509
ltoes -38.0411
264
root 9.44409 20.5733 -10.199 16.137 0.893059 -1.77325
lowerback 2.16346 -0.299233 -6.25821
upperback 1.96989 -0.482139 -0.326327
thorax 0.867734 -0.310472 3.1783
lowerneck -13.5128 -2.07135 -2.75912
upperneck 32.4819 -2.99578 2.25772
head 13.2215 -1.35997 0.911707
rclavicle 0 1.27222e-014
rhumerus -49.7271 -7.79254 -31.1686
rradius 27.3231
rwrist 2.75103
rhand -15.0837 -33.0094
rfingers 7.12502
rthumb 11.0841 -62.6967
lclavicle 0 1.27222e-014
lhumerus -43.4633 -22.4236 93.8475
lradius 83.3433
lwrist 45.88
lhand -31.8857 -4.71119
lfingers 7.12502
lthumb -5.13841 25.2065
rfemur -46.4269 -1.40195 28.3977
rtibia 55.1615
rfoot -18.2475 -9.08355
rtoes -34.3314
lfemur -26.9931 6.75009 -29.2935
ltibia 57.3173
lfoot -27.7267 12.1931
ltoes -35.1538
265
root 9.45018 20.3182 -10.2288 16.0854 1.87985 -1.66527
lowerback 2.64688 -0.50969 -6.10813
upperback 1.88347 -0.798275 -0.129891
thorax 0.539927 -0.456199 3.30728
lowerneck -13.4531 -2.06582 -2.55844
upperneck 32.2598 -3.00525 2.15639
head 13.1082 -1.35261 0.835314
rclavicle -7.95139e-016 2.06736e-014
rhumerus -49.7055 -7.69635 -33.5316
rradius 28.3719
rwrist 1.45206
rhand -13.6551 -31.8255
rfingers 7.12502
rthumb 12.4617 -61.4339
lclavicle -7.95139e-016 2.06736e-014
lhumerus -42.3839 -21.4042 92.384
lradius 81.108
lwrist 44.7943
lhand -32.422 -4.27453
lfingers 7.12502
lthumb -5.65616 25.63
rfemur -47.2788 -1.91381 28.9467
rtibia 57.1773
rfoot -22.4287 -11.6082
rtoes -30.9687
lfemur -27.3168 6.8892 -30.0223
ltibia 58.6518
lfoot -30.7498 14.1365
ltoes -31.8113
